<svg version="1.1" id="Layer_1" xmlns="http://www.w3.org/2000/svg" xmlns:xlink="http://www.w3.org/1999/xlink" x="0px" y="0px" viewBox="0 0 41 354" style="enable-background:new 0 0 41 354;" xml:space="preserve">
 <style type="text/css">
  .st0{fill:#FFFFFF;}
 </style>
 <g>
  <path class="st0" d="M20.9,317.5h-0.4c-9,0-16.4,6.7-16.4,15.8c0,9.1,7.3,15.7,16.3,15.7h0.1c9,0,16.4-6.7,16.4-15.8
		c0-9.1-7.3-15.7-16.3-15.7 M20.9,354h-0.4C9.6,354,0,345.4,0,333.4c0-12,9.5-20.3,20.4-20.3l0.1-0.1c10.9,0,20.5,8.5,20.5,20.5
		c0,12.1-9.5,20.4-20.4,20.4">
  </path>
  <polyline class="st0" points="0.8,307.4 0.8,303.7 36,303.7 36,281 39.8,281 39.8,307.4 	">
  </polyline>
  <path class="st0" d="M36,262c0-10-6.6-16.2-15.4-16.2h-0.1c-8.8,0-16,6.2-16,16.2v8.9H36 M0.8,276V262c0-12.5,8.5-21.2,19.6-21.2
		h0.1c11.2,0,19.3,8.8,19.3,21.2V276">
  </path>
  <polyline class="st0" points="0.8,235.8 0.8,226.2 17.6,215.8 0.8,205.4 0.8,195.5 39.8,195.5 39.8,204.3 14.5,204.3 31,215.8 
		31,216 14.6,226.9 39.8,226.9 39.8,235.8 	">
  </polyline>
  <path class="st0" d="M23.4,186.7H0.8v-8.8h22.3c6.5,0,9.8-2.8,9.8-8.2c0-5.3-3.2-8.2-9.5-8.2H0.8v-8.8h22.3
		c12,0,17.9,6.4,17.9,17.1C41,180.5,35,186.7,23.4,186.7">
  </path>
  <polyline class="st0" points="8.3,135.2 8.3,147.7 0.8,147.7 0.8,115.1 8.3,115.1 8.3,127.6 39.8,127.6 39.8,135.2 	">
  </polyline>
  <path class="st0" d="M23.4,110H0.8v-8.8h22.3c6.5,0,9.8-2.8,9.8-8.2c0-5.3-3.2-8.2-9.5-8.2H0.8v-8.8h22.3c12,0,17.9,6.4,17.9,17.1
		C41,103.8,35,110,23.4,110">
  </path>
  <path class="st0" d="M23.4,48.3l-12.9,5.3l12.9,5.3 M0.8,57.5v-8l39-17v9.1L31,45.2v16.8l8.8,3.6v8.9">
  </path>
  <polyline class="st0" points="0.8,28.9 0.8,20.1 32.2,20.1 32.2,0 39.8,0 39.8,28.9 	">
  </polyline>
 </g>
</svg>