<svg version="1.1" id="Layer_1" xmlns="http://www.w3.org/2000/svg" xmlns:xlink="http://www.w3.org/1999/xlink" x="0px" y="0px" viewBox="0 0 160.4 160.9" style="enable-background:new 0 0 160.4 160.9;" xml:space="preserve">
 <style type="text/css">
  .st0{fill:#FFFFFF;}
 </style>
 <path class="st0" d="M105,94.3c0.9-1.6,0.4-3.5-1.2-4.4c-1.6-0.9-3.5-0.4-4.4,1.2c-0.9,1.6-0.4,3.5,1.2,4.4l1.6,0.4
	C103.4,95.9,104.4,95.3,105,94.3 M94,84.9c1.4-2.5,6.5-1.6,4.9,1.9c2.1-1.1,4.6-1.2,6.9,0c3.3,1.9,4.4,6.2,2.5,9.3
	c-1.9,3.3-6.2,4.4-9.3,2.5c-2.1-1.2-3.3-3.5-3.3-5.8c-2.1,3.2-5.5-0.9-4.1-3.3c-1.4-1.1-4.1-2.6-6.3-4.2C85,83.5,85,81.8,85,80
	C87.7,81.8,91.9,83.9,94,84.9 M59.7,95.5c1.6-0.9,2.1-2.8,1.2-4.4s-2.8-2.1-4.4-1.2s-2.1,2.8-1.2,4.4c0.5,1.1,1.6,1.6,2.8,1.6
	L59.7,95.5z M75.4,85.5c-2.5,1.4-5.1,3.2-6.3,4.2c1.4,2.5-1.9,6.5-4.1,3.3c0,2.3-1.2,4.6-3.5,5.8c-3.3,1.9-7.6,0.7-9.3-2.5
	c-1.9-3.3-0.7-7.6,2.5-9.3c2.1-1.2,4.8-1.2,6.9,0c-1.8-3.5,3.5-4.2,4.9-1.9c2.1-0.9,6.3-3.2,9.3-4.8C75.5,81.9,75.5,83.7,75.4,85.5
	 M83.5,54.4c0-1.8-1.4-3.2-3.2-3.2c-1.8,0-3.2,1.4-3.2,3.2c0,1.8,1.4,3.2,3.2,3.2C81.9,57.6,83.5,56.2,83.5,54.4 M87.2,54.4
	c0,2.5-1.4,4.8-3.3,6c3.9,0.4,1.9,5.1-0.9,5.1c-0.4,2.6-0.5,8.5-0.5,11.6c0,12,1.6,26.8,5.8,30.7c3,0.2,6.5-0.2,10-1.2
	c3.9-1.1,7.2-2.6,9.7-4.4c3,0.4,5.6,1.2,7.6,2.3c-4.6,3.9-9.5,7.6-15.2,10.8c-6.5,3.7-13.8,6.9-20.5,9c-6.5-2.1-13.9-5.1-20.5-9
	c-5.5-3.2-10.6-6.9-15.2-10.8c1.9-1.1,4.6-1.8,7.6-2.3c2.5,1.8,5.8,3.3,9.7,4.4c3.7,1.1,7.2,1.4,10,1.2c4.1-4.1,5.8-18.7,5.8-30.7
	c0-3.2-0.2-9.2-0.5-11.6c-2.8,0-4.8-4.8-0.9-5.1c-1.9-1.2-3.3-3.3-3.3-6c0-3.9,3.2-6.9,6.9-6.9C84,47.6,87.2,50.6,87.2,54.4
	 M100.6,44.6c6.7,3.9,12.7,8.3,18,13.2c1.6,6.9,2.5,14.3,2.5,22c0,6.3-0.7,12.7-1.8,18.5c-1.9-1.2-3.9-3-5.8-5.5
	c0.4-3.2,0-6.7-1.1-10.8c-1.1-3.7-2.5-6.9-4.1-9.3c-4.6-1.2-14.5,2.5-23.6,7.1c0-1.1,0-1.9,0-3c0-0.9,0-1.8,0-2.8
	c7.8-5.3,14.6-11.1,15.7-15.3c-1.2-2.6-3.3-5.5-6-8.1c-2.8-2.8-6-4.9-8.8-6.2c-1.1-2.8-1.8-5.5-1.8-7.8
	C89.3,38.9,95.1,41.4,100.6,44.6 M74.8,44.6C72,45.8,69,47.9,66,50.7c-2.6,2.6-4.8,5.5-6,8.1c1.1,4.2,7.9,10,15.7,15.3
	c0,1.1,0,1.9,0,2.8c0,1.1,0,1.9,0,3c-9.2-4.8-19.2-8.5-23.6-7.1c-1.6,2.5-3,5.6-4.1,9.3c-1.1,3.9-1.4,7.6-1.1,10.8
	c-1.9,2.5-3.9,4.2-5.8,5.5c-1.1-5.8-1.8-12-1.8-18.5c0-7.8,0.9-15.2,2.5-22C47,53,53,48.6,59.8,44.7c5.6-3.2,11.3-5.8,16.9-7.8
	C76.6,39.1,76.1,41.8,74.8,44.6">
 </path>
</svg>