<svg version="1.2" xmlns="http://www.w3.org/2000/svg" viewBox="0 0 1598 352" width="1598" height="352">
	<title>Old_Mutual-svg</title>
	<defs>
		<linearGradient id="g1" x1="-53.4" y1="175.5" x2="328.4" y2="175.5" gradientUnits="userSpaceOnUse">
			<stop offset=".3" stop-color="#6eab24"/>
			<stop offset=".7" stop-color="#006150"/>
		</linearGradient>
	</defs>
	<style>
		.s0 { fill: url(#g1) } 
		.s1 { fill: #006150 } 
	</style>
	<g id="Layer">
		<g id="Layer">
			<g id="Layer">
				<path id="Layer" fill-rule="evenodd" class="s0" d="m164.2 42.6c15.3 0 27.8 12.4 27.8 27.7 0 10.1-5.5 19-13.6 23.8 15.6 1.2 7.9 20.9-3.3 20.7-1.2 10.4-1.8 34.1-1.8 47.1 0 48.4 6.7 107.5 23.3 123.6 11.9 0.9 26-0.8 40.8-4.7 15.8-4.2 29.2-10.6 39.3-18 12 1.6 22.5 4.8 30.5 9-18.2 15.7-38.5 30.5-60.9 43.4-26.3 15.2-55.6 27.7-82.1 35.9-26.7-8.2-55.7-20.7-82.1-35.9-22.4-12.9-42.7-27.7-60.8-43.4 8-4.2 18.4-7.4 30.5-9 10.1 7.4 23.4 13.8 39.3 18 14.7 3.9 28.9 5.6 40.8 4.7 16.6-16.1 23.3-75.2 23.3-123.6 0-13-0.6-36.7-1.8-47.1-11.3 0.2-18.9-19.5-3.3-20.7-8.2-4.8-13.6-13.7-13.6-23.8 0-15.3 12.4-27.7 27.7-27.7zm-14.1-42.6c-0.3 9-2.8 19.7-7.4 30.9-11.5 5-23.6 13.4-35.3 25-10.7 10.8-19.2 22.2-24.4 33 4.1 16.7 31.8 40.6 62.9 61.7 0.1 4.1 0.1 8.1 0.1 11.3 0 3.9 0 7.7-0.1 11.6-36.9-18.9-77-33.8-95.3-28.6-6.7 9.9-12.4 23-16.3 37.7-4.3 15.8-5.4 30.6-4.1 43-7.4 9.6-15.3 17.1-23 21.9-4.5-23.5-7.2-48.6-7.2-74.4 0-31.3 3.5-61.2 10-89 20.8-19.5 45-37.5 72.1-53.2 22.4-12.9 45.4-23 68-30.9zm-4.2 173.6c-0.1 7.2-0.4 14.2-0.9 21.4-9.8 5.9-20.3 12.6-25.7 16.7 5.8 9.6-7.5 26-16.3 13.2-0.1 9.4-5.1 18.6-13.9 23.6-13.2 7.7-30.2 3.1-37.8-10.1-7.7-13.3-3.2-30.2 10.1-37.9 8.8-5 19.2-4.8 27.4-0.2-6.7-14 14.2-17.3 19.6-7.4 8.5-3.7 25.8-12.7 37.5-19.3zm93.7 26.7c8.3-4.6 18.7-4.9 27.5 0.2 13.2 7.7 17.8 24.6 10.1 37.9-7.6 13.2-24.6 17.8-37.9 10.1-8.7-5-13.7-14.2-13.8-23.6-8.8 12.8-22.1-3.6-16.3-13.2-5.4-4.1-16-10.8-25.7-16.7-0.5-7.2-0.8-14.2-0.9-21.4 11.6 6.6 29 15.6 37.5 19.3 5.4-9.9 26.3-6.6 19.5 7.4zm78.8-116.2c6.6 27.8 10 57.7 10.1 89 0 25.8-2.7 50.8-7.2 74.4-7.7-4.8-15.7-12.3-23.1-21.9 1.4-12.4 0.2-27.2-4-43-4-14.7-9.6-27.8-16.4-37.7-18.2-5.2-58.3 9.7-95.3 28.6-0.1-3.9-0.1-7.7-0.1-11.6 0-3.3 0.1-7.2 0.1-11.3 31.2-21.1 58.8-45 63-61.7-5.2-10.8-13.7-22.2-24.5-33-11.6-11.6-23.8-20-35.2-25-4.6-11.2-7.1-21.9-7.4-30.9 22.6 7.9 45.6 18 68 30.9 27.1 15.7 51.2 33.7 72 53.2zm-58.8 129.3c-6.1-3.5-14-1.4-17.5 4.7-3.5 6.1-1.4 14 4.7 17.5 2 1.2 4.2 1.7 6.4 1.7 4.4 0 8.7-2.2 11.1-6.4 3.6-6.1 1.4-13.9-4.7-17.5zm-82.6-143.1c0-7.1-5.7-12.8-12.8-12.8-7 0-12.8 5.7-12.8 12.8 0 7.1 5.8 12.8 12.8 12.8 7.1 0 12.8-5.7 12.8-12.8zm-101.7 167c2.1 0 4.3-0.5 6.4-1.7 6.1-3.5 8.2-11.4 4.7-17.5-3.6-6.1-11.4-8.2-17.5-4.7-6.2 3.6-8.3 11.4-4.7 17.5 2.4 4.2 6.7 6.4 11.1 6.4z"/>
				<g id="Layer">
					<path id="Layer" fill-rule="evenodd" class="s1" d="m403.7 174.2v-0.4c0-37.5 28.2-70.4 69.7-70.4 41.4 0 69.2 32.5 69.2 70 0.2 0.2 0.2 0.2 0 0.4 0 37.5-28.2 70.4-69.7 70.4-41.4 0-69.2-32.4-69.2-70zm122.9 0v-0.4c0-30.9-22.5-56.2-53.7-56.2-31.1 0-53.3 24.9-53.3 55.8v0.4c0 30.9 22.6 56.2 53.8 56.2 31.1 0 53.2-24.9 53.2-55.8zm33.4-68.5h15.3v122h76.7v14.2h-92zm110.1 0h47.3c42.8 0 72.4 29.4 72.4 67.7v0.4c0 38.3-29.6 68-72.4 68h-47.3zm47.3 122c34.5 0 56.4-23.4 56.4-53.5v-0.4c0-30.1-22-53.9-56.4-53.9h-31.9v107.8c0 0 31.9 0 31.9 0zm90.8-122h32.3l35.8 57.6 35.8-57.6h32.3v136.2h-29.8v-88.9l-38.3 58.1h-0.8l-37.9-57.5v88.3h-29.4zm154.4 77.8v-77.8h30v77c0 22.1 11.1 33.6 29.4 33.6 18.2 0 29.3-11.1 29.3-32.7v-77.9h30v76.8c0 41.2-23.1 61.4-59.7 61.4-36.6 0.1-59-20.4-59-60.4zm175.5-50.2h-41.5v-27.6h112.8v27.6h-41.4v108.5h-29.9zm86.7 50.2v-77.8h29.9v77c0 22.2 11.1 33.6 29.4 33.6 18.3 0 29.4-11 29.4-32.6v-78h29.9v76.8c0 41.2-23.1 61.5-59.7 61.5-36.5 0-58.9-20.4-58.9-60.5zm175.8-78.8h27.6l58.4 137.1h-31.3l-12.5-30.5h-57.6l-12.4 30.5h-30.6zm31.5 80.2l-18-44.2-18.1 44.2zm68-79.2h30v108.9h67.9v27.2h-97.9z"/>
				</g>
			</g>
		</g>
	</g>
</svg>