<svg version="1.2" xmlns="http://www.w3.org/2000/svg" viewBox="0 0 1434 1532" width="1434" height="1532">
	<title>Old_Mutual-svg</title>
	<defs>
		<linearGradient id="g1" x1="-233.1" y1="766" x2="1433.5" y2="766" gradientUnits="userSpaceOnUse">
			<stop offset=".3" stop-color="#6eab24"/>
			<stop offset=".7" stop-color="#006150"/>
		</linearGradient>
	</defs>
	<style>
		.s0 { fill: url(#g1) } 
	</style>
	<g id="Layer">
		<g id="Layer">
			<g id="Layer">
				<path id="Layer" fill-rule="evenodd" class="s0" d="m716.8 185.9c66.8 0 121 54.2 121 120.9 0 44.2-23.7 82.9-59.1 104 67.9 5.2 34.6 91.1-14.4 90.3-5.2 45.1-7.9 148.5-7.9 205.4 0 211.1 29.1 469.3 101.7 539.2 51.9 3.9 113.7-3.3 177.9-20.4 69.3-18.5 127.6-46.3 171.7-78.6 52.5 7.1 98.1 20.9 133 39.4-79.2 68.5-167.8 133.1-265.5 189.4-115 66.4-242.9 120.7-358.4 156.4-116.7-35.7-243.3-90-358.3-156.4-97.7-56.3-186.4-120.9-265.5-189.4 34.8-18.5 80.5-32.3 133-39.4 44 32.2 102.3 60.1 171.7 78.6 64.2 17.1 125.9 24.3 177.9 20.3 72.6-69.8 101.7-328 101.7-539.1 0-56.9-2.7-160.4-7.9-205.4-49 0.9-82.3-85.1-14.4-90.3-35.4-21.1-59.2-59.8-59.2-104 0-66.8 54.3-120.9 121-120.9zm-61.7-185.9c-1.3 39.4-12.1 85.8-32.3 134.8-49.9 22-103.2 58.6-153.9 109.3-47 47-84.1 96.9-106.7 143.8 18.1 72.9 138.8 177.1 274.8 269.1 0.3 18.3 0.5 35.3 0.5 49.4 0 17.2-0.2 33.5-0.6 50.9-161.3-82.7-336.3-147.7-415.9-124.9-29.4 43-54.1 100.1-71.3 164.2-18.6 69.3-23.6 133.6-17.7 188-32.4 41.8-67.2 74.4-100.7 95.3-19.6-102.6-31.4-211.9-31.3-324.6 0.1-136.5 15.3-266.8 43.8-388.1 90.8-85.3 196.2-163.9 314.5-232.1 97.6-56.4 198-100.8 296.8-135.1zm-18.2 757.5c-0.7 31.6-2 62.1-3.9 93.3-42.8 26.1-88.6 55.2-112.5 72.9 25.4 41.9-32.5 113.7-71 57.6-0.5 41.2-22.2 81.1-60.5 103.2-57.8 33.4-131.8 13.5-165.3-44.3-33.3-57.8-13.5-131.8 44.3-165.2 38.4-22.1 83.7-20.9 119.7-0.7-29.4-61.4 61.7-75.6 85.4-32.7 37-16 112.8-55.3 163.8-84.1zm409 116.7c36.1-20.1 81.5-21.4 119.8 0.7 57.8 33.4 77.6 107.5 44.3 165.3-33.5 57.7-107.5 77.6-165.4 44.2-38.2-22-59.9-61.9-60.4-103.1-38.5 56.1-96.4-15.7-71-57.7-23.8-17.6-69.7-46.8-112.4-72.8-2-31.2-3.3-61.7-4-93.4 51 28.9 126.8 68.2 163.8 84.2 23.7-42.9 114.9-28.7 85.3 32.6zm344-507.1c28.5 121.3 43.6 251.6 43.8 388.2 0 112.6-11.7 221.9-31.4 324.6-33.4-20.9-68.3-53.6-100.7-95.4 6-54.3 0.9-118.7-17.7-187.9-17.1-64.2-41.9-121.2-71.3-164.2-79.5-22.8-254.5 42.1-415.8 124.9-0.5-17.4-0.6-33.7-0.6-51 0-14 0.2-31 0.5-49.3 136-92.1 256.6-196.3 274.8-269.1-22.6-46.9-59.7-96.8-106.7-143.8-50.7-50.7-104-87.3-154-109.3-20-49-30.9-95.4-32.3-134.8 98.8 34.3 199.2 78.7 296.9 135.1 118.3 68.2 223.7 146.8 314.5 232zm-256.8 564.3c-26.7-15.4-60.9-6.3-76.3 20.4-15.5 26.7-6.3 60.9 20.4 76.3 8.9 5.1 18.5 7.5 28 7.5 19.3 0 38-9.9 48.3-28 15.6-26.8 6.3-60.8-20.4-76.2zm-360.3-624.6c0-30.9-25-55.8-55.9-55.8-31 0-55.9 24.9-55.9 55.8 0 30.9 24.9 55.9 55.9 55.9 30.9 0 55.9-25 55.9-55.9zm-444.3 728.8c9.5 0 19.2-2.4 28-7.5 26.8-15.4 35.9-49.6 20.5-76.3-15.5-26.7-49.7-35.8-76.4-20.4-26.7 15.4-36 49.4-20.4 76.2 10.3 18.1 29.1 28 48.3 28z"/>
			</g>
		</g>
	</g>
</svg>